<svg width="30" height="30" viewBox="0 0 30 30" fill="none" xmlns="http://www.w3.org/2000/svg">
<path d="M23.7221 18.584C23.1071 17.9445 22.3652 17.6026 21.5789 17.6026C20.799 17.6026 20.0507 17.9382 19.4103 18.5777L17.4066 20.5722C17.2417 20.4835 17.0768 20.4012 16.9183 20.3189C16.69 20.2049 16.4745 20.0973 16.2906 19.9833C14.4137 18.793 12.7079 17.2417 11.072 15.2346C10.2794 14.2341 9.74673 13.392 9.35993 12.5372C9.87989 12.0624 10.3618 11.5685 10.831 11.0936C11.0086 10.9163 11.1861 10.7327 11.3637 10.5554C12.6953 9.22576 12.6953 7.50354 11.3637 6.17388L9.63259 4.44532C9.43602 4.24904 9.23311 4.04643 9.04289 3.84381C8.66243 3.45124 8.26295 3.04602 7.85079 2.66611C7.23572 2.05827 6.50018 1.73535 5.72658 1.73535C4.95299 1.73535 4.20476 2.05827 3.57067 2.66611C3.56433 2.67244 3.56433 2.67244 3.55799 2.67878L1.40207 4.85055C0.590434 5.66101 0.127547 6.64876 0.026092 7.7948C-0.12609 9.64366 0.419229 11.3659 0.83773 12.4929C1.86496 15.2599 3.39946 17.8242 5.68854 20.5722C8.46586 23.8837 11.8075 26.4987 15.6248 28.3412C17.0832 29.0313 19.0298 29.8481 21.2048 29.9874C21.3379 29.9938 21.4774 30.0001 21.6043 30.0001C23.069 30.0001 24.2992 29.4746 25.263 28.4298C25.2693 28.4172 25.282 28.4108 25.2883 28.3982C25.6181 27.9993 25.9985 27.6384 26.398 27.2521C26.6707 26.9925 26.9497 26.7203 27.2223 26.4353C27.8501 25.7832 28.1798 25.0234 28.1798 24.2446C28.1798 23.4594 27.8437 22.706 27.2033 22.0728L23.7221 18.584ZM25.9922 25.2513C25.9858 25.2513 25.9858 25.2577 25.9922 25.2513C25.7449 25.5173 25.4912 25.7579 25.2186 26.0238C24.8064 26.4164 24.3879 26.8279 23.9948 27.2901C23.3544 27.974 22.5998 28.2969 21.6106 28.2969C21.5155 28.2969 21.414 28.2969 21.3189 28.2905C19.4357 28.1702 17.6856 27.4358 16.373 26.8089C12.784 25.074 9.63259 22.611 7.01379 19.4895C4.85154 16.8871 3.40581 14.4811 2.44833 11.8977C1.85862 10.3211 1.64303 9.0928 1.73814 7.93409C1.80155 7.19328 2.08689 6.57911 2.61319 6.05358L4.77544 3.89446C5.08615 3.60321 5.41588 3.44491 5.73927 3.44491C6.13874 3.44491 6.46213 3.68552 6.66504 3.88813C6.67138 3.89446 6.67772 3.9008 6.68406 3.90713C7.07086 4.26804 7.43863 4.64161 7.82543 5.0405C8.022 5.24312 8.22491 5.44573 8.42782 5.65468L10.1589 7.38324C10.831 8.0544 10.831 8.6749 10.1589 9.34607C9.975 9.52969 9.79746 9.7133 9.61357 9.89059C9.08093 10.4351 8.57366 10.9417 8.022 11.4355C8.00932 11.4482 7.99663 11.4545 7.99029 11.4672C7.44497 12.0117 7.54643 12.5436 7.66057 12.9045C7.66691 12.9235 7.67325 12.9425 7.67959 12.9615C8.12979 14.0505 8.76389 15.0763 9.72771 16.2983L9.73405 16.3046C11.4841 18.4574 13.3294 20.1353 15.3648 21.4206C15.6248 21.5853 15.8911 21.7182 16.1447 21.8449C16.373 21.9588 16.5886 22.0665 16.7725 22.1804C16.7978 22.1931 16.8232 22.2121 16.8486 22.2248C17.0642 22.3324 17.2671 22.3831 17.4763 22.3831C18.0026 22.3831 18.3323 22.0538 18.4401 21.9462L20.6087 19.7807C20.8243 19.5654 21.1667 19.3058 21.5662 19.3058C21.9594 19.3058 22.2827 19.5528 22.4793 19.7681C22.4856 19.7744 22.4856 19.7744 22.492 19.7807L25.9858 23.2695C26.639 23.9153 26.639 24.5802 25.9922 25.2513Z" fill="#F9F8F3"/>
<path d="M16.214 7.13611C17.8753 7.4147 19.3845 8.19983 20.5892 9.40286C21.794 10.6059 22.574 12.1128 22.8593 13.7717C22.929 14.1896 23.2905 14.4809 23.7026 14.4809C23.7534 14.4809 23.7978 14.4746 23.8485 14.4682C24.3177 14.3922 24.6284 13.949 24.5523 13.4805C24.2099 11.4733 23.2588 9.64346 21.8067 8.1935C20.3546 6.74354 18.5221 5.79379 16.512 5.45187C16.0428 5.37589 15.6053 5.68615 15.5228 6.14836C15.4404 6.61058 15.7448 7.06013 16.214 7.13611Z" fill="#F9F8F3"/>
<path d="M29.987 13.2336C29.4226 9.92849 27.8627 6.92093 25.4659 4.52754C23.069 2.13415 20.0571 0.576554 16.7471 0.0130316C16.2842 -0.0692806 15.8467 0.247305 15.7643 0.70952C15.6882 1.17807 15.9989 1.61495 16.4681 1.69727C19.423 2.19747 22.1179 3.59678 24.2611 5.73056C26.4043 7.87068 27.7993 10.5617 28.3003 13.5122C28.37 13.9301 28.7315 14.2214 29.1436 14.2214C29.1943 14.2214 29.2387 14.2151 29.2895 14.2087C29.7523 14.1391 30.0694 13.6959 29.987 13.2336Z" fill="#F9F8F3"/>
</svg>
